# xmcd
#
# Track frame offsets:
# 150
# 13481
# 29249
# 43036
# 62630
# 77804
# 96989
# 115657
# 136266
# 150187
# 168447
# 188349
# 210633
#
# Disc length: 3138 seconds
#
#
# Revision: 0
# Processed by: cddbd v1.5PL3 Copyright (c) Steve Scherf et al.
# Submitted via: FreeRIP 2.51 
#
DISCID=a80c400d
DTITLE=Norah Jones - Feels Like Home
DYEAR=2004
DGENRE=Blues
TTITLE0=Sunrise
TTITLE1=What Am I To You?
TTITLE2=Those Sweet Words
TTITLE3=Carnival Town
TTITLE4=In The Morning
TTITLE5=Be Here To Love Me
TTITLE6=Creepin' In
TTITLE7=Toes
TTITLE8=Humble Me
TTITLE9=Above Ground
TTITLE10=The Long Way Home
TTITLE11=The Prettiest Thing
TTITLE12=Don't Miss You At All
EXTD=
EXTT0=
EXTT1=
EXTT2=
EXTT3=
EXTT4=
EXTT5=
EXTT6=
EXTT7=
EXTT8=
EXTT9=
EXTT10=
EXTT11=
EXTT12=
PLAYORDER=
